<svg width="151" height="42" viewBox="0 0 151 42" fill="none" xmlns="http://www.w3.org/2000/svg">
<g clip-path="url(#clip0_406_2452)">
<path d="M70.7444 21.112V16.968L72.8444 16.828V6.608L70.8004 6.86V2.52L78.2764 1.4V16.828L80.2644 16.968V21.112L75.5044 20.888L70.7444 21.112Z" fill="#0E0F2D"/>
<path d="M81.0367 6V4.656H83.8847V3.848L80.9567 3.584V1.424L81.9807 0.4H85.3567V1.744H82.5087V2.472L85.4367 2.736V4.976L84.4127 6H81.0367ZM87.2819 6V1.744H85.9139V0.4H90.2019V1.744H88.8339V6H87.2819Z" fill="#0E0F2D"/>
<path d="M55.9956 15.88V13.16L64.4756 10.04V12.808L59.2916 14.52L64.4756 16.232V19L55.9956 15.88ZM95.0106 13.16V15.88L86.5306 19V16.232L91.7146 14.52L86.5306 12.808V10.04L95.0106 13.16Z" fill="#0E0F2D"/>
<path d="M28.1818 35V28.75H29.6018V35H28.1818ZM26.0718 28.95V27.7H31.7118V28.95H26.0718ZM36.0605 35.19C35.4005 35.19 34.8271 35.0733 34.3405 34.84C33.8605 34.6067 33.4605 34.3033 33.1405 33.93C32.8271 33.55 32.5905 33.1433 32.4305 32.71C32.2771 32.27 32.2005 31.8467 32.2005 31.44V31.22C32.2005 30.7733 32.2805 30.33 32.4405 29.89C32.6005 29.4433 32.8405 29.04 33.1605 28.68C33.4871 28.32 33.8905 28.0333 34.3705 27.82C34.8505 27.6 35.4138 27.49 36.0605 27.49C36.7005 27.49 37.2605 27.6 37.7405 27.82C38.2205 28.0333 38.6205 28.32 38.9405 28.68C39.2671 29.04 39.5105 29.4433 39.6705 29.89C39.8305 30.33 39.9105 30.7733 39.9105 31.22V31.44C39.9105 31.8467 39.8305 32.27 39.6705 32.71C39.5171 33.1433 39.2805 33.55 38.9605 33.93C38.6471 34.3033 38.2471 34.6067 37.7605 34.84C37.2805 35.0733 36.7138 35.19 36.0605 35.19ZM36.0605 33.87C36.4338 33.87 36.7671 33.8033 37.0605 33.67C37.3605 33.5367 37.6138 33.3533 37.8205 33.12C38.0338 32.88 38.1938 32.61 38.3005 32.31C38.4138 32.0033 38.4705 31.68 38.4705 31.34C38.4705 30.9733 38.4138 30.6367 38.3005 30.33C38.1938 30.0233 38.0338 29.7567 37.8205 29.53C37.6138 29.3033 37.3605 29.1267 37.0605 29C36.7605 28.8733 36.4271 28.81 36.0605 28.81C35.6871 28.81 35.3505 28.8733 35.0505 29C34.7505 29.1267 34.4938 29.3033 34.2805 29.53C34.0738 29.7567 33.9138 30.0233 33.8005 30.33C33.6938 30.6367 33.6405 30.9733 33.6405 31.34C33.6405 31.68 33.6938 32.0033 33.8005 32.31C33.9138 32.61 34.0738 32.88 34.2805 33.12C34.4938 33.3533 34.7505 33.5367 35.0505 33.67C35.3505 33.8033 35.6871 33.87 36.0605 33.87ZM44.7128 35.19C44.0528 35.19 43.4795 35.0733 42.9928 34.84C42.5128 34.6067 42.1128 34.3033 41.7928 33.93C41.4795 33.55 41.2428 33.1433 41.0828 32.71C40.9295 32.27 40.8528 31.8467 40.8528 31.44V31.22C40.8528 30.7733 40.9328 30.33 41.0928 29.89C41.2528 29.4433 41.4928 29.04 41.8128 28.68C42.1395 28.32 42.5428 28.0333 43.0228 27.82C43.5028 27.6 44.0661 27.49 44.7128 27.49C45.3528 27.49 45.9128 27.6 46.3928 27.82C46.8728 28.0333 47.2728 28.32 47.5928 28.68C47.9195 29.04 48.1628 29.4433 48.3228 29.89C48.4828 30.33 48.5628 30.7733 48.5628 31.22V31.44C48.5628 31.8467 48.4828 32.27 48.3228 32.71C48.1695 33.1433 47.9328 33.55 47.6128 33.93C47.2995 34.3033 46.8995 34.6067 46.4128 34.84C45.9328 35.0733 45.3661 35.19 44.7128 35.19ZM44.7128 33.87C45.0861 33.87 45.4195 33.8033 45.7128 33.67C46.0128 33.5367 46.2661 33.3533 46.4728 33.12C46.6861 32.88 46.8461 32.61 46.9528 32.31C47.0661 32.0033 47.1228 31.68 47.1228 31.34C47.1228 30.9733 47.0661 30.6367 46.9528 30.33C46.8461 30.0233 46.6861 29.7567 46.4728 29.53C46.2661 29.3033 46.0128 29.1267 45.7128 29C45.4128 28.8733 45.0795 28.81 44.7128 28.81C44.3395 28.81 44.0028 28.8733 43.7028 29C43.4028 29.1267 43.1461 29.3033 42.9328 29.53C42.7261 29.7567 42.5661 30.0233 42.4528 30.33C42.3461 30.6367 42.2928 30.9733 42.2928 31.34C42.2928 31.68 42.3461 32.0033 42.4528 32.31C42.5661 32.61 42.7261 32.88 42.9328 33.12C43.1461 33.3533 43.4028 33.5367 43.7028 33.67C44.0028 33.8033 44.3395 33.87 44.7128 33.87ZM49.9352 35V27.7H51.3552V35H49.9352ZM51.1552 35V33.75H54.3052V35H51.1552ZM61.0507 35.19C60.3907 35.19 59.8174 35.0733 59.3307 34.84C58.8507 34.6067 58.4507 34.3033 58.1307 33.93C57.8174 33.55 57.5807 33.1433 57.4207 32.71C57.2674 32.27 57.1907 31.8467 57.1907 31.44V31.22C57.1907 30.7733 57.2707 30.33 57.4307 29.89C57.5907 29.4433 57.8307 29.04 58.1507 28.68C58.4774 28.32 58.8807 28.0333 59.3607 27.82C59.8407 27.6 60.404 27.49 61.0507 27.49C61.6907 27.49 62.2507 27.6 62.7307 27.82C63.2107 28.0333 63.6107 28.32 63.9307 28.68C64.2574 29.04 64.5007 29.4433 64.6607 29.89C64.8207 30.33 64.9007 30.7733 64.9007 31.22V31.44C64.9007 31.8467 64.8207 32.27 64.6607 32.71C64.5074 33.1433 64.2707 33.55 63.9507 33.93C63.6374 34.3033 63.2374 34.6067 62.7507 34.84C62.2707 35.0733 61.704 35.19 61.0507 35.19ZM61.0507 33.87C61.424 33.87 61.7574 33.8033 62.0507 33.67C62.3507 33.5367 62.604 33.3533 62.8107 33.12C63.024 32.88 63.184 32.61 63.2907 32.31C63.404 32.0033 63.4607 31.68 63.4607 31.34C63.4607 30.9733 63.404 30.6367 63.2907 30.33C63.184 30.0233 63.024 29.7567 62.8107 29.53C62.604 29.3033 62.3507 29.1267 62.0507 29C61.7507 28.8733 61.4174 28.81 61.0507 28.81C60.6774 28.81 60.3407 28.8733 60.0407 29C59.7407 29.1267 59.484 29.3033 59.2707 29.53C59.064 29.7567 58.904 30.0233 58.7907 30.33C58.684 30.6367 58.6307 30.9733 58.6307 31.34C58.6307 31.68 58.684 32.0033 58.7907 32.31C58.904 32.61 59.064 32.88 59.2707 33.12C59.484 33.3533 59.7407 33.5367 60.0407 33.67C60.3407 33.8033 60.6774 33.87 61.0507 33.87ZM66.273 35V27.7H67.693V35H66.273ZM67.493 31.96V30.76L70.413 30.75V31.95L67.493 31.96ZM67.493 28.9V27.7H70.553V28.9H67.493ZM75.467 35V28.75H76.887V35H75.467ZM73.357 28.95V27.7H78.997V28.95H73.357ZM84.9205 35V27.7H86.3405V35H84.9205ZM80.1305 35V27.7H81.5505V35H80.1305ZM81.2905 31.97V30.72H85.1805V31.97H81.2905ZM88.1383 35V27.7H89.5283V35H88.1383ZM89.3283 35V33.8H92.6383V35H89.3283ZM89.3283 31.89V30.69H92.3783V31.89H89.3283ZM89.3283 28.9V27.7H92.5583V28.9H89.3283ZM97.4535 35L95.5935 27.7H97.0635L98.5735 34.05L98.1835 33.82H99.1835L98.7435 34.05L99.9335 27.98H101.154L99.6735 35H97.4535ZM101.814 35L100.204 27.98H101.474L102.844 34.05L102.414 33.82H103.394L103.014 34.05L104.344 27.7H105.734L104.074 35H101.814ZM106.869 35V27.7H108.259V35H106.869ZM108.059 35V33.8H111.369V35H108.059ZM108.059 31.89V30.69H111.109V31.89H108.059ZM108.059 28.9V27.7H111.289V28.9H108.059ZM112.826 35V27.7H114.216V35H112.826ZM114.016 35V33.8H117.326V35H114.016ZM114.016 31.89V30.69H117.066V31.89H114.016ZM114.016 28.9V27.7H117.246V28.9H114.016ZM123.513 35L120.843 31.59H119.813L122.983 27.7H124.613L121.753 31.2L121.713 30.5L125.243 35H123.513ZM118.783 35V27.7H120.203V35H118.783Z" fill="#0E0F2D"/>
<path d="M13.6924 15.1264C13.9456 14.67 13.781 14.0948 13.3246 13.8415C12.8682 13.5883 12.2929 13.753 12.0397 14.2094C10.8444 16.3635 9.97354 18.9549 9.8174 22.348C9.26053 34.4494 18.3551 40.4142 23.7699 41.5807C24.2801 41.6906 24.7829 41.3661 24.8928 40.8559C25.0027 40.3456 24.6782 39.8429 24.1679 39.733C19.3727 38.7 11.2031 33.3522 11.7055 22.4349C11.8477 19.3441 12.633 17.0357 13.6924 15.1264Z" fill="#FF7516"/>
<path d="M17.395 11.6318C16.256 14.6239 13.301 16.2761 12.2368 15.871C11.1726 15.4659 10.0643 12.2669 11.2034 9.27484C12.3424 6.28274 15.5876 4.74103 16.3615 5.03565C17.1355 5.33028 18.534 8.63971 17.395 11.6318Z" fill="#FF7516"/>
<path d="M9.73927 14.8691C11.8709 17.2579 11.9771 20.6417 11.1275 21.3999C10.2779 22.158 6.9279 21.669 4.79624 19.2803C2.66457 16.8915 2.79014 13.3009 3.40802 12.7496C4.0259 12.1982 7.6076 12.4804 9.73927 14.8691Z" fill="#FF7516"/>
<path d="M7.11343 23.7991C10.1213 24.8959 11.8148 27.8273 11.4247 28.8971C11.0346 29.9669 7.8516 31.12 4.84378 30.0232C1.83596 28.9264 0.248758 25.7032 0.532465 24.9252C0.816172 24.1472 4.10561 22.7022 7.11343 23.7991Z" fill="#FF7516"/>
<path d="M9.79941 33.3272C12.9344 32.6779 15.9168 34.2802 16.1477 35.3952C16.3787 36.5102 14.2781 39.1653 11.1431 39.8146C8.0081 40.4639 4.96278 38.5576 4.79481 37.7467C4.62685 36.9357 6.66439 33.9766 9.79941 33.3272Z" fill="#FF7516"/>
<path d="M137.722 15.1264C137.469 14.67 137.633 14.0948 138.09 13.8415C138.546 13.5883 139.121 13.753 139.374 14.2094C140.57 16.3635 141.441 18.9549 141.597 22.348C142.154 34.4494 133.059 40.4142 127.644 41.5807C127.134 41.6906 126.631 41.3661 126.521 40.8559C126.411 40.3456 126.736 39.8429 127.246 39.733C132.041 38.7 140.211 33.3522 139.709 22.4349C139.566 19.3441 138.781 17.0357 137.722 15.1264Z" fill="#FF7516"/>
<path d="M134.019 11.6318C135.158 14.6239 138.113 16.2761 139.178 15.871C140.242 15.4659 141.35 12.2669 140.211 9.27484C139.072 6.28274 135.827 4.74103 135.053 5.03565C134.279 5.33028 132.88 8.63971 134.019 11.6318Z" fill="#FF7516"/>
<path d="M141.675 14.8691C139.543 17.2579 139.437 20.6417 140.287 21.3999C141.136 22.158 144.486 21.669 146.618 19.2803C148.75 16.8915 148.624 13.3009 148.006 12.7496C147.388 12.1982 143.807 12.4804 141.675 14.8691Z" fill="#FF7516"/>
<path d="M144.181 23.9348C141.201 25.1065 139.581 28.0793 139.998 29.139C140.415 30.1987 143.626 31.272 146.605 30.1003C149.585 28.9287 151.091 25.6668 150.788 24.8962C150.485 24.1255 147.16 22.7632 144.181 23.9348Z" fill="#FF7516"/>
<path d="M141.615 33.3272C138.48 32.6779 135.498 34.2802 135.267 35.3952C135.036 36.5102 137.136 39.1653 140.271 39.8146C143.406 40.4639 146.452 38.5576 146.619 37.7467C146.787 36.9357 144.75 33.9766 141.615 33.3272Z" fill="#FF7516"/>
</g>
<defs>
<clipPath id="clip0_406_2452">
<rect width="151" height="42" fill="white"/>
</clipPath>
</defs>
</svg>
